<?xml version="1.0" standalone="no"?>
<!DOCTYPE svg PUBLIC "-//W3C//DTD SVG 20010904//EN"
 "http://www.w3.org/TR/2001/REC-SVG-20010904/DTD/svg10.dtd">
<svg version="1.0" xmlns="http://www.w3.org/2000/svg"
 width="1080.000000pt" height="1080.000000pt" viewBox="0 0 1080.000000 1080.000000"
 preserveAspectRatio="xMidYMid meet">

<g transform="translate(0.000000,1080.000000) scale(0.100000,-0.100000)"
fill="#000000" stroke="none">
<path d="M8008 6462 c-71 -3 -78 -5 -83 -25 -3 -12 -14 -67 -25 -122 -10 -55
-33 -165 -50 -245 -17 -80 -44 -206 -60 -280 -15 -74 -45 -209 -65 -300 -56
-255 -69 -329 -62 -337 4 -3 92 -9 195 -11 l187 -4 133 628 c72 346 133 645
135 664 l2 34 -115 1 c-63 0 -150 -1 -192 -3z"/>
<path d="M2595 6356 c-8 -19 -16 -50 -17 -68 l-3 -33 153 -3 c137 -2 153 -4
148 -19 -4 -9 -11 -48 -16 -87 -6 -39 -17 -98 -26 -131 -14 -55 -26 -111 -84
-395 -10 -52 -28 -135 -40 -185 -29 -127 -58 -279 -54 -284 3 -3 95 -5 206 -5
l201 -1 112 526 c62 290 115 538 119 553 l6 26 159 0 159 0 11 50 c22 101 81
90 -505 90 l-515 0 -14 -34z"/>
<path d="M4263 6000 c-58 -12 -119 -50 -178 -110 -28 -27 -53 -50 -57 -50 -4
0 -12 26 -18 58 -20 102 -3 92 -170 92 -96 0 -151 -4 -156 -11 -7 -12 -17 -54
-65 -279 -16 -80 -44 -208 -61 -285 -45 -208 -52 -254 -45 -262 4 -4 92 -7
194 -7 l187 -1 63 295 c56 263 66 297 89 318 31 27 85 29 106 5 24 -30 38 -72
45 -133 l6 -59 61 -6 c33 -4 79 -5 101 -3 l40 3 37 175 c48 225 48 227 1 246
-46 20 -125 26 -180 14z"/>
<path d="M4910 6000 c-67 -8 -225 -52 -271 -76 -22 -11 -29 -24 -38 -71 -5
-32 -13 -68 -17 -80 l-6 -23 138 0 139 0 23 50 c27 59 61 80 130 80 39 0 53
-5 73 -26 21 -23 24 -33 22 -101 -1 -42 -6 -80 -10 -84 -4 -4 -82 -12 -173
-18 -191 -12 -290 -37 -376 -96 -70 -48 -89 -88 -89 -187 l0 -78 -174 -2
c-142 -3 -175 -6 -182 -18 -8 -13 -39 -78 -149 -315 -15 -33 -45 -96 -65 -140
-21 -44 -50 -107 -65 -140 -30 -65 -79 -170 -155 -333 -56 -119 -55 -122 39
-119 l59 2 58 130 58 130 159 3 159 2 6 -47 c4 -27 9 -84 13 -128 4 -44 12
-83 18 -87 6 -4 94 -8 195 -8 l183 0 -5 43 c-21 147 -99 909 -94 913 3 3 18
-2 33 -12 37 -25 55 -28 159 -29 81 0 97 3 156 31 37 18 84 48 106 68 22 20
45 36 50 36 5 0 16 -26 24 -57 l15 -58 48 -8 c26 -4 97 -6 158 -5 l111 3 48
220 c54 244 69 388 49 451 -7 21 -28 58 -46 81 -72 88 -281 130 -514 103z
m155 -452 c-3 -13 -11 -53 -19 -90 -21 -107 -62 -151 -137 -151 -70 0 -109 60
-88 136 21 79 94 127 192 127 54 0 57 -1 52 -22z m-889 -754 c9 -89 14 -170
10 -179 -6 -16 -17 -17 -124 -10 -64 3 -118 8 -120 10 -2 2 127 296 189 429
l14 30 7 -60 c3 -32 14 -132 24 -220z"/>
<path d="M7098 5999 c-145 -15 -294 -83 -372 -169 -117 -130 -150 -385 -66
-521 81 -132 194 -179 430 -179 172 1 376 48 404 93 14 21 46 150 46 181 0 14
-21 16 -153 16 l-154 0 -18 -40 c-10 -22 -38 -58 -61 -80 -36 -33 -51 -40 -84
-40 -34 0 -42 4 -55 30 -16 30 -21 158 -9 219 l7 31 278 0 279 0 20 39 c26 53
45 165 36 222 -23 157 -221 231 -528 198z m162 -146 c20 -26 22 -36 17 -120
-3 -51 -8 -97 -12 -103 -7 -11 -220 -9 -231 2 -7 8 33 114 62 164 48 82 123
108 164 57z"/>
<path d="M5654 5977 c-5 -14 27 -259 47 -352 5 -27 21 -124 34 -215 28 -186
39 -248 50 -258 3 -4 94 -7 202 -7 l195 0 130 245 c202 381 298 570 298 586 0
23 -162 20 -182 -3 -9 -10 -56 -99 -105 -198 -140 -284 -184 -367 -189 -363
-2 3 -22 129 -44 282 -21 152 -42 281 -45 286 -4 6 -83 10 -196 10 -149 0
-191 -3 -195 -13z"/>
<path d="M5325 4936 c-55 -17 -116 -50 -153 -81 -35 -29 -37 -27 -61 48 l-13
37 -128 0 c-71 0 -131 -4 -134 -8 -2 -4 -16 -66 -31 -137 -14 -72 -35 -168
-45 -215 -11 -47 -35 -164 -55 -260 -20 -96 -45 -212 -56 -258 -31 -134 -45
-122 146 -122 91 0 165 2 165 5 0 14 83 381 87 385 3 3 15 -7 26 -21 12 -14
49 -41 82 -60 55 -31 67 -34 145 -34 75 0 91 3 131 27 91 53 147 152 181 315
28 137 22 255 -14 311 -49 74 -164 103 -273 68z m-68 -144 c23 -15 34 -66 28
-127 -27 -244 -111 -358 -199 -267 l-25 27 33 155 c33 150 35 155 71 187 37
32 68 40 92 25z"/>
<path d="M6317 4940 c-48 -12 -89 -33 -150 -76 -33 -24 -49 -30 -52 -22 -3 7
-11 31 -18 53 l-14 40 -131 3 c-130 3 -132 2 -137 -20 -3 -13 -17 -79 -31
-148 -14 -69 -36 -174 -49 -235 -13 -60 -35 -166 -49 -235 -14 -69 -34 -165
-46 -213 -11 -48 -20 -101 -20 -118 l0 -29 162 2 163 3 40 187 c22 103 43 190
47 194 4 3 18 -7 32 -23 13 -16 51 -42 83 -58 50 -26 69 -30 138 -30 63 0 89
5 121 22 47 25 105 86 132 140 54 106 91 315 72 414 -12 63 -27 88 -75 125
-30 23 -48 28 -108 30 -40 2 -89 -1 -110 -6z m-61 -165 c35 -54 -1 -281 -59
-366 -30 -44 -86 -53 -123 -18 -13 12 -24 29 -24 38 0 8 14 82 32 164 32 150
32 150 72 178 49 36 80 37 102 4z"/>
</g>
</svg>
