<svg xmlns="http://www.w3.org/2000/svg" width="1080" height="1080" viewBox="0 0 1080 1080" version="1.1"><path d="M 833.934 441.699 C 831.381 442.095, 831.299 442.423, 818.619 502.299 C 811.608 535.409, 805.645 563.288, 805.368 564.250 C 804.916 565.822, 803.248 566, 788.933 566 L 773 566 773 570 L 773 574 793.433 574 C 812.033 574, 813.911 573.843, 814.371 572.250 C 816.338 565.446, 818.877 553.706, 824.481 525.500 C 825.902 518.350, 827.697 510.250, 828.469 507.500 C 829.242 504.750, 830.610 498.225, 831.508 493 C 832.407 487.775, 833.577 482.355, 834.107 480.955 C 834.638 479.556, 836.160 472.806, 837.490 465.955 C 838.819 459.105, 840.472 451.110, 841.163 448.189 C 842.797 441.285, 841.881 440.463, 833.934 441.699 M 367.742 448.064 C 366.775 448.638, 365.535 448.830, 364.985 448.491 C 363.953 447.853, 363.591 448.563, 362.564 453.250 L 361.962 456 346.064 456 L 330.166 456 329.147 460.750 C 320.242 502.285, 307 564.814, 307 565.329 C 307 565.698, 299.238 566.002, 289.750 566.005 L 272.500 566.010 272.273 570.005 L 272.046 574 293.874 574 L 315.703 574 317.371 567.750 C 318.288 564.313, 320.113 556.100, 321.426 549.500 C 326.596 523.520, 328.117 516.285, 329.540 510.899 C 330.354 507.819, 331.873 500.844, 332.916 495.399 C 333.959 489.955, 335.861 480.663, 337.143 474.750 L 339.473 464 355.261 464 L 371.050 464 372.138 461.250 C 372.736 459.738, 373.288 456.025, 373.363 453 C 373.483 448.193, 373.248 447.470, 371.500 447.260 C 370.400 447.128, 368.709 447.490, 367.742 448.064 M 265.607 457.582 C 265.273 458.452, 265 460.252, 265 461.582 C 265 463.966, 265.129 464, 274.250 463.985 C 279.337 463.976, 284.006 463.639, 284.624 463.235 C 285.243 462.831, 286.066 461.038, 286.454 459.250 L 287.159 456 276.686 456 C 268.059 456, 266.107 456.279, 265.607 457.582 M 448.481 488.340 C 448.033 489.685, 441 522.728, 441 523.490 C 441 523.771, 437.850 524, 434 524 L 427 524 427 526.918 C 427 532.700, 427.479 533, 436.695 533 L 445.175 533 449.538 528.250 C 452.296 525.247, 453.716 522.875, 453.399 521.799 C 453.122 520.864, 453.325 518.389, 453.848 516.299 C 454.371 514.210, 455.078 511.262, 455.419 509.750 C 455.855 507.812, 456.697 506.966, 458.269 506.884 C 459.962 506.796, 460.078 506.658, 458.750 506.311 C 456.648 505.761, 456.652 505.886, 458.500 499 C 460.344 492.129, 460.356 491, 458.583 491 C 457.804 491, 457.009 490.526, 456.816 489.947 C 456.278 488.334, 448.954 486.922, 448.481 488.340 M 607 490.784 C 607 492.647, 612.944 536.045, 613.398 537.500 C 613.570 538.050, 615.438 534.981, 617.550 530.679 C 619.898 525.897, 620.999 522.595, 620.384 522.179 C 619.420 521.527, 618.167 515.122, 615.850 499 C 615.258 494.875, 614.635 491.348, 614.466 491.163 C 614.297 490.977, 612.548 490.462, 610.579 490.018 C 607.648 489.357, 607 489.495, 607 490.784 M 402 492.441 C 402 496.088, 403.418 496.278, 405.871 492.961 L 408.060 490 405.030 490 C 402.484 490, 402 490.390, 402 492.441 M 638.415 528.243 L 618.500 565.986 600.128 565.993 C 585.549 565.999, 581.967 566.258, 582.782 567.250 C 583.346 567.938, 583.964 569.625, 584.154 571 L 584.500 573.500 606 573.768 C 625.650 574.013, 627.594 573.884, 628.596 572.268 C 629.199 571.296, 632.314 565.550, 635.517 559.500 C 638.720 553.450, 642.892 545.575, 644.789 542 C 648.397 535.199, 657.788 517.268, 659.487 513.936 C 660.030 512.871, 661.043 512, 661.737 512 C 662.439 512, 663 510.814, 663 509.333 C 663 507.867, 663.301 506.968, 663.669 507.335 C 664.571 508.238, 669 500.309, 669 497.791 C 669 496.420, 669.474 495.968, 670.500 496.362 C 671.325 496.678, 672 496.549, 672 496.076 C 672 495.602, 671.325 494.955, 670.500 494.638 C 669.675 494.322, 669 493.374, 669 492.531 C 669 490.960, 668.116 490.716, 661.915 490.579 L 658.330 490.500 638.415 528.243 M 494 493.752 C 490.817 495.341, 488.062 499.241, 486.580 504.250 C 486.133 505.764, 484.728 506, 476.162 506 L 466.262 506 465.668 509.656 C 464.966 513.984, 465.432 515, 468.118 515 C 469.326 515, 469.847 515.439, 469.434 516.107 C 468.972 516.854, 469.448 516.993, 470.894 516.534 C 472.073 516.159, 478.992 515.263, 486.269 514.541 C 493.546 513.820, 498.881 513.178, 498.125 513.115 C 497.123 513.031, 496.923 512.136, 497.387 509.816 C 498.235 505.573, 500.204 503.576, 505.549 501.534 C 507.997 500.600, 510 499.624, 510 499.368 C 510 499.111, 509.343 497.630, 508.540 496.077 C 506.283 491.712, 500.071 490.719, 494 493.752 M 720 494.500 C 720 495.325, 719.325 496, 718.500 496 C 717.675 496, 717 496.675, 717 497.500 C 717 498.325, 716.325 499, 715.500 499 C 714.675 499, 714 499.689, 714 500.531 C 714 501.374, 713.325 502.322, 712.500 502.638 C 711.675 502.955, 711 504.034, 711 505.036 C 711 506.037, 710.325 507.532, 709.500 508.357 C 708.675 509.182, 708 511.208, 708 512.859 C 708 515.177, 707.487 515.960, 705.750 516.294 C 704.513 516.533, 706.425 516.782, 710 516.849 C 714.525 516.933, 716.044 516.675, 715 516 C 714.165 515.460, 714.012 515.024, 714.655 515.015 C 715.792 515, 722.571 504.119, 722.236 502.846 C 722.141 502.486, 722.725 501.644, 723.532 500.973 C 725.439 499.390, 725.420 497, 723.500 497 C 722.667 497, 722 496.111, 722 495 C 722 493.900, 721.550 493, 721 493 C 720.450 493, 720 493.675, 720 494.500 M 762.162 496.036 C 763.876 500.952, 762.701 514.655, 760.043 520.750 L 757.754 526 729.936 526 C 714.258 526, 701.872 526.398, 701.554 526.912 C 701.244 527.414, 700.711 531.801, 700.370 536.662 C 699.462 549.590, 702.148 555.184, 708.499 553.590 C 710.577 553.068, 710.812 552.672, 709.906 551.221 C 709.173 550.048, 709.093 547.196, 709.659 542.489 L 710.500 535.500 716.250 535.200 C 720.455 534.981, 722 535.249, 721.999 536.200 C 721.998 537.225, 725.411 537.437, 738.159 537.201 C 750.417 536.974, 754.511 537.209, 755.107 538.173 C 755.701 539.134, 756.053 539.025, 756.553 537.722 C 756.963 536.654, 758.289 536, 760.042 536 C 761.597 536, 764.079 535.540, 765.557 534.979 C 767.423 534.269, 768.639 534.285, 769.539 535.033 C 771.599 536.742, 773.275 526.295, 772.837 514.473 C 772.506 505.524, 772.146 503.823, 769.856 500.397 C 768.424 498.254, 765.864 495.698, 764.167 494.718 L 761.081 492.935 762.162 496.036 M 547.166 496.793 C 549.622 502.927, 548.364 516.544, 543.082 541 C 540.291 553.925, 538.005 564.837, 538.004 565.250 C 538.002 565.663, 531.877 566, 524.393 566 C 512.356 566, 510.857 566.184, 511.397 567.593 C 511.733 568.469, 512.280 570.269, 512.613 571.593 L 513.217 574 530.068 574 L 546.920 574 547.940 570.250 C 548.501 568.188, 549.910 561.775, 551.072 556 C 552.233 550.225, 554.068 541.225, 555.149 536 C 556.615 528.921, 557.037 523.524, 556.808 514.819 C 556.467 501.895, 555.434 499.311, 549.216 495.837 L 546.082 494.087 547.166 496.793 M 407.500 502.945 C 402.670 504.922, 402.960 503.910, 390.838 561.250 L 389.834 566 374.462 566 L 359.091 566 358.425 569.547 C 358.059 571.497, 357.937 573.270, 358.153 573.486 C 358.369 573.702, 367.624 574.019, 378.721 574.190 L 398.895 574.500 400.975 570 C 402.343 567.041, 403.195 562.761, 403.465 557.500 C 403.691 553.100, 404.774 546.125, 405.872 542 C 406.970 537.875, 408.618 530.467, 409.535 525.537 C 411.154 516.824, 413.937 511.184, 416.680 511.055 C 417.533 511.015, 417.604 510.099, 416.934 507.750 C 415.480 502.649, 412.247 501.002, 407.500 502.945 M 494.143 524.493 C 486.579 526.853, 482 532.893, 482 540.513 C 482 545.069, 485.655 549, 489.892 549 C 492.698 549, 492.843 548.808, 492.347 545.750 C 491.965 543.394, 492.392 541.771, 493.900 539.854 C 496.540 536.498, 502.975 532.586, 503.063 534.284 C 503.168 536.285, 504.693 531.810, 505.460 527.250 L 506.176 523 502.338 523.067 C 500.227 523.104, 496.539 523.745, 494.143 524.493 M 753.433 545.662 C 750.472 558.595, 750.633 558.275, 745.951 560.634 C 730.265 568.541, 697.460 569.938, 680.626 563.417 C 676.720 561.904, 681.859 567.606, 686.849 570.321 C 700.788 577.908, 737.007 577.459, 754.294 569.486 C 758.998 567.316, 760.197 566.267, 760.669 563.907 C 761.324 560.630, 762.450 560.195, 763.842 562.682 C 764.569 563.981, 765.054 563.013, 765.975 558.432 C 766.631 555.169, 767.359 551.600, 767.594 550.500 C 767.828 549.400, 767.678 548.049, 767.260 547.498 C 765.752 545.510, 761.084 543.745, 758.868 544.324 C 757.623 544.650, 756.037 544.445, 755.343 543.870 C 754.393 543.081, 753.922 543.523, 753.433 545.662 M 497.500 556.731 C 492.314 561.305, 482.967 565.704, 475.505 567.084 C 468.419 568.394, 459.101 566.920, 454.713 563.795 C 453.157 562.688, 451.692 561.975, 451.455 562.211 C 451.219 562.448, 453.270 583.196, 456.013 608.318 C 458.756 633.441, 461 654.897, 461 655.998 C 461 657.917, 460.339 658, 445.147 658 L 429.293 658 429.397 661.750 L 429.500 665.500 447.676 665.772 C 464.356 666.022, 465.891 665.899, 466.338 664.272 C 468.854 655.118, 469.213 651.376, 468.176 645.106 C 467.574 641.473, 466.798 635.575, 466.451 632 C 466.104 628.425, 465.429 623.682, 464.952 621.459 C 463.856 616.348, 459.704 571.962, 460.270 571.397 C 460.502 571.165, 462.847 571.929, 465.482 573.095 C 475.306 577.441, 490.175 576.140, 500.035 570.074 C 502.599 568.496, 505.553 566.986, 506.598 566.719 C 507.914 566.382, 508.019 566.196, 506.939 566.116 C 505.924 566.041, 504.918 564.163, 504.062 560.750 C 502.090 552.879, 501.958 552.799, 497.500 556.731 M 413.312 576 C 412.724 577.375, 412.639 578.650, 413.122 578.833 C 414.299 579.280, 414.252 584, 413.070 584 C 412.558 584, 411.995 583.015, 411.820 581.811 C 411.615 580.414, 408.463 586.466, 403.094 598.561 C 398.471 608.978, 394.507 617.837, 394.285 618.250 C 394.063 618.663, 396.540 619, 399.789 619 L 405.696 619 407.509 614.750 C 408.506 612.413, 410.875 606.955, 412.774 602.623 L 416.227 594.747 415.304 584.123 C 414.529 575.201, 414.211 573.900, 413.312 576 M 562.107 597.373 C 564.628 606.164, 562.266 626.288, 557.228 638.937 C 553.763 647.637, 545.586 656.042, 538.737 657.944 C 534.043 659.248, 523.306 658.971, 518.116 657.413 C 514.106 656.208, 516.103 659.127, 521.431 662.257 C 534.409 669.882, 550.253 667.795, 558.886 657.322 C 562.097 653.426, 567.333 643.561, 567.333 641.406 C 567.333 640.633, 567.933 640, 568.667 640 C 569.580 640, 570 638.583, 570 635.500 C 570 633.025, 570.400 631, 570.889 631 C 573.757 631, 572.498 609.175, 569.200 601.719 C 567.947 598.886, 566.131 596.713, 564.221 595.760 L 561.214 594.260 562.107 597.373 M 660.436 596.271 C 664.240 609.161, 659.536 635.166, 651.256 647.017 C 645.745 654.906, 639.616 658.380, 630.386 658.846 C 625.545 659.090, 621.554 658.695, 618.562 657.676 C 612.877 655.739, 612.849 657.356, 618.500 661.271 C 627.402 667.438, 640.874 668.628, 648.725 663.940 C 657.347 658.792, 664.121 649.060, 666.782 638 C 669.180 628.033, 670.206 613.653, 668.997 606.983 C 667.541 598.952, 666.782 597.537, 662.894 595.597 C 659.838 594.072, 659.791 594.085, 660.436 596.271 M 525.435 601.859 C 526.094 602.954, 525.477 603.087, 522.259 602.544 C 518.929 601.981, 517.826 602.254, 515.634 604.184 C 513.381 606.168, 512.553 608.668, 509.852 621.638 C 508.118 629.963, 506.968 637.474, 507.296 638.329 C 508.284 640.904, 512.671 643.239, 515.083 642.474 C 516.283 642.093, 516.808 641.493, 516.250 641.141 C 515.588 640.723, 515.856 638.125, 517.021 633.663 C 518.003 629.903, 519.344 623.978, 520.001 620.496 C 520.818 616.165, 521.954 613.452, 523.598 611.908 C 524.919 610.667, 526 609.055, 526 608.326 C 526 607.597, 526.450 607, 527 607 C 528.630 607, 528.138 603.357, 526.308 601.872 C 524.902 600.732, 524.754 600.730, 525.435 601.859 M 614.397 604.405 C 611.437 607.237, 610.899 608.771, 608.082 622.428 C 605.278 636.023, 605.138 637.562, 606.514 639.662 C 608.018 641.958, 612.119 643.663, 613.734 642.664 C 614.200 642.376, 614.693 640.421, 614.830 638.320 C 615.206 632.529, 619.718 615.080, 621.569 612.255 C 622.468 610.882, 624.058 609.536, 625.102 609.263 C 627.078 608.746, 627.400 606.883, 626.092 603.538 C 624.774 600.165, 618.330 600.643, 614.397 604.405 M 382.455 644.476 C 377.217 656.456, 376.267 658, 374.136 658 C 371.521 658, 366.668 662.499, 367.282 664.354 C 367.515 665.057, 370.813 665.612, 375.820 665.790 L 383.979 666.081 387.837 657.790 C 389.959 653.231, 392.741 647.138, 394.018 644.250 L 396.342 639 407.421 638.882 C 413.514 638.816, 418.865 638.826, 419.312 638.902 C 419.758 638.979, 419.983 637.344, 419.812 635.271 L 419.500 631.500 403.934 631.226 L 388.369 630.951 382.455 644.476 M 504.575 648 C 504.268 648.825, 502.289 657.600, 500.178 667.500 L 496.339 685.500 484.420 685.760 C 473.708 685.994, 472.323 686.233, 470.750 688.121 C 469.788 689.276, 469 691.072, 469 692.111 C 469 693.890, 470.005 694, 486.317 694 L 503.635 694 505.274 688.750 C 506.643 684.367, 508.484 675.524, 511.724 657.760 C 512.025 656.113, 512.678 655.266, 513.362 655.636 C 513.988 655.974, 512.820 654.818, 510.767 653.066 C 508.713 651.315, 506.606 649.121, 506.084 648.191 C 505.272 646.745, 505.054 646.717, 504.575 648 M 601.680 653.644 C 600.839 657.415, 598.925 666.237, 597.425 673.250 L 594.700 686 582.373 686 C 570.338 686, 570.007 686.059, 568.413 688.492 C 565.021 693.669, 566.307 694.074, 585.191 693.774 L 602.427 693.500 603.281 690 C 603.751 688.075, 604.814 684.025, 605.645 681 C 606.475 677.975, 607.929 670.872, 608.875 665.215 C 609.822 659.558, 610.912 655.245, 611.298 655.631 C 611.684 656.017, 612 656.127, 612 655.875 C 612 655.623, 610.022 653.475, 607.604 651.102 L 603.208 646.788 601.680 653.644" stroke="none" fill="#948f8f" fill-rule="evenodd"/><path d="M 426 550.877 L 433.500 551.446 422.012 551.973 L 410.523 552.500 408.271 557.250 C 407.033 559.862, 405.763 562, 405.451 562 C 405.138 562, 405.157 561.555, 405.493 561.011 C 405.847 560.439, 405.433 560.280, 404.510 560.635 C 403.633 560.971, 403.101 561.753, 403.328 562.373 C 403.555 562.993, 403.162 564.926, 402.455 566.668 C 401.748 568.411, 401.432 570.099, 401.752 570.418 C 402.072 570.738, 401.822 571, 401.198 571 C 400.550 571, 400.337 571.714, 400.701 572.664 C 401.165 573.872, 400.977 574.104, 400.015 573.510 C 399.183 572.995, 398.931 573.080, 399.337 573.737 C 400.033 574.863, 398.335 579.127, 391.267 594 C 386.418 604.203, 381.759 614.185, 377.732 623 C 376.350 626.025, 373.864 631.425, 372.206 635 C 364.764 651.049, 363.012 655.410, 363.731 656.092 C 364.154 656.494, 367.116 656.975, 370.313 657.161 L 376.127 657.500 381.907 644.500 L 387.686 631.500 403.726 631.226 L 419.766 630.952 420.477 635.694 C 420.868 638.303, 420.808 640.563, 420.344 640.717 C 419.880 640.871, 419.725 644.224, 420 648.169 C 420.490 655.203, 420.556 655.348, 423.423 655.728 C 425.031 655.941, 427.138 656.539, 428.107 657.057 C 429.076 657.576, 436.913 658, 445.522 658 L 461.176 658 460.597 654.250 C 460.278 652.188, 457.752 629.125, 454.983 603 C 452.214 576.875, 449.743 554.554, 449.492 553.398 C 449.109 551.633, 448.272 551.285, 444.268 551.225 C 441.646 551.187, 434.775 550.964, 429 550.731 C 422.874 550.484, 421.624 550.545, 426 550.877 M 413.347 574.500 C 410.313 580.212, 393.830 618.163, 394.215 618.549 C 394.463 618.796, 400.253 619.188, 407.083 619.420 C 415.169 619.694, 417.582 619.577, 414 619.083 L 408.500 618.326 413 618.045 C 415.475 617.890, 418.107 617.846, 418.849 617.948 C 419.860 618.087, 420.058 617.175, 419.640 614.317 C 419.333 612.217, 418.787 606.732, 418.426 602.127 C 418.063 597.493, 417.424 594.314, 416.995 595.008 C 416.569 595.697, 416.144 592.715, 416.050 588.381 C 415.956 584.046, 415.549 578.700, 415.145 576.500 C 414.490 572.937, 414.293 572.719, 413.347 574.500 M 534 584.500 C 532.075 585.241, 531.175 585.902, 532 585.968 C 532.825 586.034, 530.363 587.608, 526.530 589.467 C 522.696 591.325, 519.139 592.586, 518.625 592.269 C 518.111 591.951, 517.982 592.161, 518.337 592.736 C 518.692 593.311, 517.823 594.541, 516.405 595.471 C 514.987 596.400, 513.732 597.011, 513.616 596.830 C 512.974 595.826, 511.002 590.801, 511.015 590.203 C 511.024 589.816, 511.467 590.175, 512 591 C 512.801 592.239, 512.972 592.148, 512.985 590.473 C 512.993 589.357, 512.299 587.445, 511.443 586.223 C 509.972 584.122, 509.181 584, 497.059 584 L 484.230 584 483.543 589.504 C 483.068 593.303, 482.294 595.307, 481.044 595.976 C 480.038 596.515, 478.935 598.626, 478.563 600.723 C 478.195 602.800, 477.636 605.400, 477.322 606.500 C 477.002 607.622, 477.136 608.140, 477.626 607.681 C 478.107 607.230, 479.041 604.530, 479.701 601.681 L 480.903 596.500 480.382 601.500 C 479.457 610.378, 474.326 632.331, 474.072 628.500 C 473.944 626.577, 473.897 626.572, 472.854 628.368 C 472.253 629.402, 472.026 632.081, 472.346 634.368 C 473.054 639.430, 470.970 652.790, 470.050 649.087 C 469.673 647.568, 468.969 650.530, 468.149 657.087 C 466.132 673.208, 464.883 679.954, 463.790 680.630 C 463.152 681.024, 463.009 680.021, 463.398 677.875 C 463.828 675.506, 463.749 675.096, 463.135 676.500 C 461.767 679.625, 460.713 685.740, 461.818 684.137 C 462.508 683.136, 462.864 683.093, 463.158 683.973 C 463.574 685.223, 496 686.918, 496 685.690 C 496 684.019, 504.010 647.657, 504.482 647.185 C 504.783 646.883, 506.486 647.984, 508.265 649.632 C 510.044 651.279, 512.625 653.182, 514 653.862 C 515.375 654.542, 517.850 655.858, 519.500 656.787 C 524.095 659.374, 536.305 659.086, 541.634 656.265 C 546.750 653.558, 551.261 649.122, 554.446 643.666 C 560.474 633.342, 564.680 608.775, 562.063 599.178 C 561.268 596.265, 559.354 593.369, 556.192 590.299 C 552.941 587.142, 552.268 586.110, 554 586.939 L 556.500 588.134 554.056 586.166 C 549.961 582.870, 540.315 582.068, 534 584.500 M 631.927 584.441 C 629.412 585.135, 626.487 586.253, 625.427 586.927 C 623.680 588.037, 623.672 588.097, 625.343 587.571 C 632.995 585.164, 634.356 585.840, 627.250 588.519 C 624.638 589.503, 620.700 591.513, 618.500 592.984 C 616.300 594.456, 613.956 595.977, 613.290 596.364 C 611.942 597.149, 607.586 588.742, 607.772 585.712 C 607.872 584.076, 606.794 583.936, 595.010 584.061 C 585.559 584.161, 582.259 584.512, 582.593 585.381 C 582.842 586.031, 582.372 588.349, 581.547 590.532 L 580.048 594.500 580.656 590.500 C 581.712 583.562, 580.061 587.321, 578.090 596.342 C 577.049 601.104, 576.561 605, 577.005 605 C 577.449 605, 578.126 602.721, 578.509 599.936 C 578.892 597.151, 579.435 595.102, 579.716 595.383 C 580.194 595.861, 577.559 612.224, 576.335 616.382 C 575.892 617.888, 575.607 617.988, 574.906 616.882 C 574.425 616.122, 573.987 615.725, 573.933 616 C 573.055 620.501, 573.065 622.333, 573.961 621 C 574.516 620.175, 574.976 619.987, 574.985 620.583 C 574.993 621.179, 574.683 621.984, 574.296 622.371 C 573.908 622.758, 573.541 624.071, 573.480 625.288 C 573.194 630.991, 572.799 633.394, 572.338 632.250 C 572.060 631.563, 571.357 631, 570.774 631 C 570.076 631, 569.930 633.056, 570.346 637.033 C 570.692 640.351, 570.551 643.838, 570.031 644.783 C 569.511 645.727, 568.141 652.350, 566.987 659.500 C 565.832 666.650, 564.405 672.950, 563.815 673.500 C 563.060 674.204, 562.934 673.685, 563.390 671.750 C 563.746 670.237, 563.822 669, 563.558 669 C 562.930 669, 561.268 675.423, 560.581 680.500 L 560.040 684.500 561.471 680 L 562.902 675.500 562.352 680.152 L 561.802 684.804 570.151 685.474 C 574.743 685.842, 582.080 685.999, 586.455 685.822 L 594.411 685.500 598.302 667 C 600.442 656.825, 602.613 648.059, 603.126 647.521 C 603.724 646.893, 604.856 647.513, 606.279 649.250 C 607.501 650.740, 611.200 653.410, 614.500 655.183 C 619.795 658.028, 621.440 658.412, 628.500 658.450 C 635.462 658.487, 637.105 658.137, 641.166 655.753 C 650.458 650.298, 656.131 640.657, 659.421 624.729 C 661.421 615.045, 661.464 599.436, 659.500 596 C 657.716 592.880, 657.626 591.657, 659.250 592.633 C 660.099 593.143, 660.060 592.842, 659.128 591.692 C 657.642 589.860, 656.494 589.372, 657.500 591 C 658.560 592.715, 657.003 592.104, 653.498 589.431 C 651.646 588.018, 648.863 586.446, 647.315 585.938 C 644.853 585.130, 645.002 585.072, 648.500 585.477 L 652.500 585.941 649 584.546 C 644.668 582.821, 637.948 582.779, 631.927 584.441 M 384.071 603.571 C 382.919 606.177, 382.195 608.528, 382.463 608.796 C 382.731 609.064, 383.872 607.131, 385 604.500 C 386.128 601.869, 386.852 599.518, 386.609 599.275 C 386.366 599.032, 385.224 600.966, 384.071 603.571 M 516.142 602.954 C 512.975 605.662, 512.585 606.745, 509.293 621.974 C 505.885 637.737, 505.845 638.172, 507.651 640.176 C 511.850 644.839, 518.861 644.838, 521.446 640.175 C 524.451 634.752, 525.762 631.404, 526.410 627.500 C 526.886 624.632, 526.785 623.924, 526.052 625 C 525.229 626.209, 525.031 626.014, 525.031 624 C 525.031 622.625, 525.467 620.825, 526 620 C 526.807 618.751, 526.987 618.835, 527.073 620.500 C 527.130 621.600, 527.856 619.629, 528.686 616.120 C 529.517 612.610, 529.815 609.460, 529.348 609.120 C 528.882 608.779, 528.410 607.223, 528.300 605.662 C 528.001 601.427, 526.320 599.801, 523.784 601.295 C 522.175 602.243, 521.642 602.234, 521.286 601.250 C 520.643 599.475, 519.934 599.710, 516.142 602.954 M 614.639 603.258 C 611.079 606.399, 610.863 606.990, 607.746 622.184 L 604.528 637.869 606.890 640.383 C 609.717 643.392, 614.108 644.548, 616.946 643.029 C 621.603 640.537, 628.227 621.025, 626.607 614.572 C 626.269 613.225, 626.415 611.862, 626.930 611.543 C 628.245 610.730, 627.039 603.857, 625.213 601.754 C 624.062 600.429, 623.371 600.277, 622.348 601.126 C 621.357 601.949, 620.645 601.950, 619.657 601.131 C 618.624 600.273, 617.467 600.763, 614.639 603.258 M 380.297 612.250 C 378.971 614, 374.701 624.718, 375.817 623.497 C 376.835 622.383, 382.073 611, 381.567 611 C 381.390 611, 380.818 611.563, 380.297 612.250 M 624.956 617.750 C 624.932 618.163, 624.536 620.449, 624.076 622.830 C 623.616 625.212, 623.589 626.787, 624.017 626.330 C 624.991 625.290, 626.387 617, 625.588 617 C 625.265 617, 624.980 617.337, 624.956 617.750 M 367.025 640.441 C 364.255 646.904, 364.559 647.527, 367.615 641.652 C 369.003 638.986, 369.893 636.560, 369.594 636.261 C 369.295 635.962, 368.139 637.843, 367.025 640.441" stroke="none" fill="#ff5757" fill-rule="evenodd"/><path d="M 790.965 435.605 C 790.289 437.656, 789.690 441.058, 789.634 443.167 C 789.579 445.275, 789.158 447, 788.700 447 C 788.241 447, 788.139 447.862, 788.473 448.916 C 788.808 449.970, 788.613 451.121, 788.041 451.475 C 787.468 451.829, 787 453.385, 787 454.933 C 787 456.482, 786.287 459.718, 785.416 462.124 C 784.545 464.531, 783.785 468.611, 783.726 471.192 C 783.663 473.976, 783.222 475.637, 782.640 475.277 C 782.078 474.930, 781.920 475.350, 782.271 476.263 C 782.607 477.138, 782.477 479.125, 781.984 480.677 C 779.776 487.620, 777.941 496.096, 778.462 496.939 C 778.776 497.447, 778.545 498.163, 777.948 498.532 C 777.352 498.901, 777.121 499.872, 777.435 500.691 C 778.053 502.301, 776.271 511.983, 769.412 544.274 C 766.986 555.700, 765 565.262, 765 565.524 C 765 565.786, 773.904 566, 784.787 566 L 804.574 566 817.795 503.750 C 825.066 469.512, 831.012 441.136, 831.008 440.691 C 831.004 440.246, 831.450 440.160, 832 440.500 C 832.609 440.876, 833 439.392, 833 436.704 L 833 432.290 812.598 432.084 L 792.196 431.877 790.965 435.605 M 261.258 439.705 C 259.463 440.051, 258.593 441.530, 256.894 447.122 C 255.728 450.963, 255.016 454.349, 255.313 454.646 C 255.610 454.944, 263.051 455.126, 271.848 455.051 L 287.842 454.915 286.375 461.203 C 285.569 464.662, 284.479 467.921, 283.954 468.446 C 283.429 468.971, 283 470.350, 283 471.512 C 283 472.673, 282.088 477.106, 280.973 481.363 C 279.858 485.620, 279.209 489.530, 279.532 490.051 C 279.854 490.573, 279.593 491, 278.951 491 C 278.213 491, 278.008 491.897, 278.395 493.439 C 278.732 494.780, 278.556 496.157, 278.004 496.498 C 277.452 496.839, 277 498.132, 277 499.371 C 277 500.610, 276.088 505.106, 274.973 509.363 C 273.858 513.620, 273.190 517.499, 273.489 517.982 C 273.788 518.466, 273.557 519.156, 272.976 519.515 C 272.394 519.874, 272.180 520.993, 272.500 522 C 272.820 523.007, 272.613 524.121, 272.041 524.475 C 271.468 524.829, 271 526.330, 271 527.812 C 271 529.294, 270.102 533.645, 269.005 537.482 C 267.908 541.318, 267.263 545.254, 267.573 546.229 C 267.893 547.237, 267.629 548, 266.960 548 C 266.287 548, 266.052 548.694, 266.410 549.627 C 266.754 550.521, 266.627 551.759, 266.129 552.377 C 265.630 552.995, 264.902 556.322, 264.511 559.770 L 263.799 566.040 285.074 565.770 L 306.350 565.500 317.643 512.500 C 323.854 483.350, 329.184 458.488, 329.487 457.250 C 330.030 455.034, 330.279 455, 345.936 455 L 361.834 455 362.956 449.767 C 363.574 446.889, 364.307 443.627, 364.585 442.517 C 365.088 440.514, 364.748 440.500, 314.296 440.540 C 283.055 440.564, 271.584 440.360, 284.500 440.009 L 305.500 439.439 284.500 439.355 C 272.950 439.310, 262.491 439.467, 261.258 439.705 M 325.750 439.745 C 330.837 439.927, 339.162 439.927, 344.250 439.745 C 349.337 439.564, 345.175 439.415, 335 439.415 C 324.825 439.415, 320.662 439.564, 325.750 439.745 M 424.500 480.081 C 422.850 480.581, 420.914 480.773, 420.198 480.507 C 419.482 480.241, 419.106 480.363, 419.363 480.778 C 419.619 481.193, 418.742 482.046, 417.413 482.673 C 415.591 483.533, 415.153 483.529, 415.631 482.656 C 415.979 482.020, 414.967 482.875, 413.382 484.555 C 411.797 486.235, 411.175 486.685, 412 485.555 C 413.491 483.512, 413.487 483.511, 411.244 485.411 C 410.003 486.461, 409.203 487.537, 409.467 487.800 C 410.073 488.407, 404.111 496, 403.029 496 C 402.127 496, 399.677 484.126, 400.178 482.181 C 400.426 481.217, 396.643 480.909, 383.750 480.845 C 374.538 480.799, 366.962 481.153, 366.915 481.631 C 366.868 482.109, 366.379 483.043, 365.829 483.706 C 365.278 484.370, 365.053 485.277, 365.328 485.722 C 365.603 486.167, 365.145 488.999, 364.309 492.016 C 363.473 495.032, 362.724 498.400, 362.645 499.500 C 362.565 500.600, 362.170 501.747, 361.766 502.049 C 361.363 502.351, 360.852 504.376, 360.632 506.549 C 360.411 508.722, 359.914 511.266, 359.527 512.202 C 359.140 513.138, 359.057 514.284, 359.344 514.748 C 359.631 515.212, 359.001 518.213, 357.944 521.417 C 356.887 524.621, 356.291 528.312, 356.620 529.621 C 357.003 531.149, 356.782 532, 356.001 532 C 355.333 532, 355.024 532.620, 355.315 533.378 C 355.606 534.136, 355.449 535.151, 354.967 535.633 C 354.484 536.116, 353.882 538.758, 353.627 541.505 C 353.373 544.252, 352.450 548.593, 351.576 551.152 C 350.702 553.710, 350.266 556.528, 350.606 557.415 C 350.946 558.301, 350.668 559.695, 349.989 560.513 C 349.311 561.331, 349.090 562, 349.500 562 C 349.910 562, 349.689 562.670, 349.010 563.488 C 347.042 565.859, 348.954 566.067, 369.973 565.772 L 389.387 565.500 395.693 536 C 401.312 509.717, 402.279 506.255, 404.556 504.250 C 407.746 501.442, 413.029 501.269, 415.406 503.897 C 417.361 506.056, 419.178 516.861, 418.313 521.183 L 417.736 524.068 429.103 523.784 L 440.469 523.500 444.605 504.500 C 446.880 494.050, 449.034 484.815, 449.391 483.977 C 450.844 480.567, 432.415 477.682, 424.500 480.081 M 488.500 480.035 C 485.750 480.533, 482.712 480.698, 481.750 480.402 C 480.772 480.102, 480 480.383, 480 481.040 C 480 481.686, 479.339 481.960, 478.532 481.651 C 477.725 481.341, 476.787 481.536, 476.448 482.084 C 476.109 482.633, 474.970 482.808, 473.916 482.473 C 472.770 482.110, 472 482.337, 472 483.040 C 472 483.739, 471.305 483.947, 470.280 483.554 C 469.335 483.191, 468.892 483.226, 469.297 483.630 C 470.279 484.612, 464.087 487.172, 462.742 486.341 C 462.158 485.979, 461.984 486.166, 462.352 486.760 C 462.715 487.348, 462.572 487.980, 462.034 488.165 C 461.253 488.432, 458.001 502.207, 458 505.250 C 458 505.663, 464.300 506, 472 506 C 482.119 506, 486 505.672, 486 504.816 C 486 504.164, 486.908 501.756, 488.018 499.464 C 490.630 494.068, 494.904 491.739, 501.399 492.173 C 509.479 492.712, 511.883 498.149, 509.547 510.601 L 508.960 513.732 495.230 514.447 C 479.063 515.289, 467.773 517.235, 460.647 520.408 C 453.900 523.412, 447.444 529.785, 445.888 534.979 C 445.024 537.864, 444.399 538.692, 443.770 537.786 C 443.198 536.961, 443.060 537.575, 443.386 539.500 C 443.665 541.150, 444.182 544.413, 444.534 546.750 C 445.081 550.372, 445.525 551, 447.543 551 C 449.898 551, 450.266 551.873, 451.328 559.987 C 451.435 560.804, 453.542 562.604, 456.011 563.987 C 459.928 566.180, 461.711 566.500, 470 566.500 C 478.575 566.500, 480.145 566.194, 486.123 563.362 C 489.766 561.636, 494.546 558.598, 496.745 556.612 C 500.915 552.844, 503 552.080, 503 554.318 C 503 555.044, 503.696 557.980, 504.546 560.844 L 506.092 566.050 521.713 565.775 L 537.333 565.500 542.289 543 C 546.512 523.829, 547.265 518.798, 547.373 509 C 547.492 498.224, 547.325 497.167, 544.714 492.211 C 543.044 489.043, 540.940 486.547, 539.464 485.986 C 538.109 485.471, 537 484.562, 537 483.966 C 537 483.370, 536.550 483.160, 536 483.500 C 535.450 483.840, 535 483.566, 535 482.892 C 535 482.218, 534.716 481.951, 534.369 482.298 C 534.021 482.645, 532.834 482.446, 531.730 481.856 C 529.056 480.424, 525.195 480.049, 508 479.551 C 500.025 479.320, 491.250 479.538, 488.500 480.035 M 702.281 480.297 C 703.068 480.863, 702.702 480.999, 701.250 480.680 C 700.013 480.409, 699 480.622, 699 481.153 C 699 481.684, 698.530 481.828, 697.956 481.473 C 697.382 481.118, 696.277 481.355, 695.500 482 C 694.723 482.645, 693.618 482.882, 693.044 482.527 C 692.470 482.172, 692 482.396, 692 483.024 C 692 483.653, 691.442 483.981, 690.759 483.753 C 690.076 483.525, 688.938 483.919, 688.230 484.627 C 687.522 485.335, 686.326 485.678, 685.572 485.389 C 684.819 485.100, 683.862 485.414, 683.447 486.086 C 682.932 486.920, 683.108 487.051, 684 486.500 C 684.892 485.949, 685.068 486.080, 684.553 486.914 C 684.138 487.586, 683.069 487.857, 682.179 487.515 C 681.289 487.174, 680.870 487.204, 681.248 487.582 C 681.626 487.960, 679.879 489.839, 677.366 491.758 C 669.378 497.857, 661 513.905, 661 523.105 C 661 524.697, 660.550 526, 660 526 C 659.450 526, 659 528.025, 659 530.500 C 659 532.975, 659.447 535, 659.993 535 C 660.539 535, 660.922 536.688, 660.845 538.750 C 660.675 543.266, 665.487 553.289, 669.656 557.102 C 673.101 560.253, 683.430 564.423, 691.468 565.909 C 708.612 569.079, 742.665 564.764, 748.781 558.647 C 750.306 557.122, 755.161 539.069, 754.384 537.812 C 753.811 536.885, 728.648 536.720, 725.285 537.621 C 723.973 537.973, 721.840 540.394, 720.054 543.558 C 714.558 553.297, 704.740 557.266, 701.526 551.050 C 699.942 547.987, 699.416 535.172, 700.625 529.125 L 701.250 526 729.105 526 L 756.959 526 758.856 522.250 C 762.867 514.323, 763.970 503.539, 761.581 495.604 C 760.266 491.234, 760.284 490.982, 761.831 492.145 C 762.749 492.835, 761.490 491.280, 759.032 488.690 C 754.524 483.938, 745.037 479.241, 742.772 480.641 C 742.169 481.014, 741.977 480.847, 742.337 480.264 C 742.779 479.548, 736.373 479.250, 722.023 479.319 C 709.731 479.379, 701.567 479.783, 702.281 480.297 M 563.020 481.480 C 563.031 482.041, 563.481 485.425, 564.020 489 C 564.559 492.575, 565.229 497.750, 565.508 500.500 C 566.153 506.847, 569.853 527.339, 571.227 532.176 C 571.801 534.197, 571.990 536.583, 571.647 537.478 C 571.304 538.372, 571.384 538.881, 571.825 538.608 C 572.267 538.335, 572.655 540.963, 572.688 544.447 C 572.720 547.931, 573.130 551.393, 573.597 552.141 C 574.065 552.888, 574.474 553.950, 574.506 554.500 C 574.539 555.050, 574.932 557.871, 575.379 560.770 L 576.193 566.039 597.206 565.770 L 618.220 565.500 639.107 526 C 650.596 504.275, 660.671 486, 661.498 485.390 C 662.324 484.779, 663 483.429, 663 482.390 C 663 480.652, 662.169 480.508, 652.639 480.605 C 642.326 480.710, 639.447 481.296, 640.543 483.069 C 640.859 483.581, 640.566 484, 639.892 484 C 639.218 484, 638.945 484.279, 639.286 484.619 C 639.626 484.960, 639.247 485.896, 638.443 486.700 C 637.639 487.504, 637.237 488.575, 637.550 489.081 C 637.862 489.586, 637.615 490, 637 490 C 636.385 490, 636.136 490.412, 636.447 490.915 C 636.758 491.418, 636.672 491.980, 636.256 492.165 C 635.220 492.624, 631.440 500.199, 631.750 501.196 C 631.888 501.638, 631.523 502, 630.941 502 C 630.359 502, 630.160 502.450, 630.500 503 C 630.840 503.550, 630.615 504, 630 504 C 629.385 504, 629.160 504.450, 629.500 505 C 629.840 505.550, 629.690 506, 629.166 506 C 628.642 506, 627.946 506.698, 627.618 507.552 C 627.281 508.432, 627.446 508.842, 628 508.500 C 628.553 508.158, 628.720 508.567, 628.384 509.442 C 628.057 510.293, 627.318 510.697, 626.741 510.340 C 626.161 509.981, 625.984 510.166, 626.346 510.751 C 627.040 511.874, 614.272 539.605, 613.443 538.776 C 612.391 537.724, 605.968 488.301, 606.497 485.328 C 606.807 483.583, 606.603 481.873, 606.042 481.526 C 604.235 480.409, 562.998 480.365, 563.020 481.480 M 716.334 493.285 C 712.274 495.562, 706.400 505.239, 704.177 513.312 L 703.127 517.124 714.558 516.848 L 725.989 516.573 726.699 513.036 C 727.089 511.091, 727.429 506.511, 727.454 502.858 C 727.490 497.686, 727.078 495.749, 725.595 494.108 C 723.483 491.770, 719.644 491.430, 716.334 493.285 M 493.791 523.988 C 486.414 526.212, 481.833 532.234, 481.833 539.708 C 481.833 551.488, 496.683 552.516, 502.391 541.131 C 503.116 539.684, 504.257 535.642, 504.925 532.149 C 505.594 528.656, 506.382 525.168, 506.677 524.399 C 507.098 523.302, 506.058 523.019, 501.857 523.086 C 498.911 523.133, 495.281 523.539, 493.791 523.988" stroke="none" fill="#0097b2" fill-rule="evenodd"/><path d="M 407.340 553.610 C 406.371 555.750, 404.979 558.232, 404.246 559.126 C 403.123 560.498, 403.159 560.847, 404.478 561.353 C 405.616 561.790, 406.651 560.668, 408.282 557.227 L 410.523 552.500 422.012 551.949 C 428.330 551.647, 431.025 551.306, 428 551.192 C 424.975 551.079, 419.485 550.701, 415.801 550.353 L 409.101 549.720 407.340 553.610 M 438 551 C 439.375 551.440, 441.850 551.801, 443.500 551.801 C 446.417 551.801, 446.431 551.778, 444 551 C 442.625 550.560, 440.150 550.199, 438.500 550.199 C 435.583 550.199, 435.569 550.222, 438 551 M 398.833 574.083 C 397.917 575.046, 397.429 576.096, 397.750 576.417 C 398.071 576.737, 397.782 577, 397.108 577 C 396.434 577, 396.139 577.416, 396.454 577.925 C 397.147 579.048, 395.016 584, 393.839 584 C 393.378 584, 393.089 584.337, 393.198 584.750 C 393.570 586.157, 391.868 590, 390.874 590 C 390.328 590, 390.142 590.420, 390.459 590.934 C 390.777 591.448, 389.678 594.541, 388.018 597.808 C 386.358 601.075, 385 604.154, 385 604.651 C 385 605.148, 384.223 606.665, 383.273 608.021 C 382.323 609.377, 381.471 610.995, 381.380 611.617 C 381.289 612.239, 378.779 617.867, 375.803 624.124 C 372.826 630.381, 368.561 639.420, 366.324 644.211 C 364.086 649.002, 361.949 652.616, 361.575 652.242 C 361.201 651.867, 361.220 652.409, 361.617 653.445 C 362.076 654.639, 361.962 655.095, 361.308 654.690 C 360.707 654.319, 360.322 654.982, 360.388 656.276 C 360.485 658.204, 361.195 658.570, 365.729 659.026 C 369.446 659.400, 371.100 659.183, 371.448 658.276 C 371.793 657.375, 370.787 657, 368.028 657 C 365.877 657, 363.872 656.601, 363.570 656.114 C 363.056 655.282, 364.963 650.622, 372.206 635 C 373.864 631.425, 376.350 626.025, 377.732 623 C 381.561 614.619, 386.277 604.501, 391.251 594 C 397.492 580.825, 401.077 572.728, 400.764 572.514 C 400.619 572.415, 399.750 573.121, 398.833 574.083 M 411.710 577.313 C 411.013 579.129, 412.038 584, 413.117 584 C 413.602 584, 414 582.875, 414 581.500 C 414 580.125, 413.564 579, 413.031 579 C 412.499 579, 412.322 578.325, 412.638 577.500 C 412.955 576.675, 412.989 576, 412.714 576 C 412.439 576, 411.987 576.591, 411.710 577.313 M 482.917 584.083 C 482.552 585.909, 481.958 589.772, 481.854 591 C 481.784 591.825, 481.275 593.073, 480.721 593.774 C 479.578 595.222, 480.367 596.509, 481.840 595.599 C 482.976 594.897, 484.491 585.158, 483.603 584.269 C 483.271 583.938, 482.962 583.854, 482.917 584.083 M 607.775 585.207 C 607.516 585.918, 607.912 587.962, 608.655 589.750 C 609.770 592.433, 610.550 593, 613.125 593 C 615.931 593, 616.107 593.171, 614.872 594.695 C 614.118 595.627, 615.525 595.022, 618 593.350 C 620.475 591.677, 624.648 589.499, 627.272 588.510 C 633.708 586.084, 632.496 585.331, 625.815 587.605 C 622.892 588.600, 620.129 589.309, 619.676 589.182 C 619.222 589.055, 619.105 589.360, 619.414 589.862 C 620.063 590.911, 616.754 591.966, 612.750 591.986 C 610.513 591.997, 609.977 591.534, 609.875 589.500 C 609.693 585.852, 609.568 585.235, 608.874 584.540 C 608.529 584.196, 608.035 584.496, 607.775 585.207 M 647 585 C 644.958 585.654, 644.863 585.819, 646.479 585.900 C 649.124 586.033, 657.636 591.916, 658.877 594.467 C 659.437 595.621, 659.894 595.906, 659.932 595.128 C 659.987 594.012, 660.285 593.992, 661.524 595.020 C 662.362 595.716, 663.301 596.032, 663.610 595.724 C 663.919 595.415, 663.120 594.615, 661.836 593.946 C 660.551 593.277, 658.089 591.216, 656.365 589.365 C 654.641 587.514, 652.252 586, 651.056 586 C 649.860 586, 649.160 585.550, 649.500 585 C 649.840 584.450, 649.979 584.045, 649.809 584.100 C 649.639 584.155, 648.375 584.560, 647 585 M 529.500 586 C 530.038 586.870, 528.010 587.475, 525.750 587.118 C 525.337 587.053, 525 587.477, 525 588.059 C 525 588.641, 524.588 588.864, 524.085 588.553 C 523.582 588.242, 523.018 588.445, 522.832 589.004 C 522.214 590.859, 512 592.490, 512 590.734 C 512 590.147, 511.764 589.902, 511.476 590.190 C 510.064 591.603, 512.288 593.674, 514.800 593.285 L 517.500 592.866 515.139 594.933 C 512.327 597.395, 513.085 597.646, 516.527 595.391 C 517.878 594.505, 518.692 593.311, 518.337 592.736 C 517.982 592.161, 518.111 591.951, 518.625 592.269 C 519.139 592.586, 522.642 591.376, 526.408 589.579 C 531.434 587.181, 532.801 586.138, 531.546 585.656 C 529.206 584.758, 528.777 584.830, 529.500 586 M 552.531 585.950 C 552.208 586.472, 553.325 587.919, 555.011 589.167 C 556.698 590.414, 558.953 592.799, 560.022 594.467 C 561.092 596.135, 561.974 596.952, 561.983 596.281 C 561.993 595.580, 562.743 595.296, 563.750 595.613 C 565.244 596.083, 565.216 595.932, 563.559 594.582 C 562.491 593.712, 561.179 593, 560.642 593 C 560.106 593, 559.940 592.727, 560.273 592.394 C 560.960 591.707, 557.387 587.567, 555.943 587.375 C 555.424 587.306, 554.523 587.194, 553.941 587.125 C 553.359 587.056, 553.160 586.550, 553.500 586 C 553.840 585.450, 553.893 585, 553.618 585 C 553.343 585, 552.854 585.427, 552.531 585.950 M 580.986 587.250 C 580.979 588.487, 580.747 590.625, 580.472 592 C 580.156 593.582, 580.500 593.214, 581.410 591 C 583.155 586.753, 583.327 585, 582 585 C 581.450 585, 580.994 586.013, 580.986 587.250 M 416.251 595.565 C 415.287 596.605, 415.252 598.075, 416.095 602.006 C 416.695 604.807, 417.265 609.404, 417.361 612.222 C 417.462 615.180, 418.043 617.514, 418.737 617.746 C 419.942 618.147, 419.759 612.585, 418.132 599.359 C 417.618 595.179, 417.267 594.470, 416.251 595.565 M 578.509 599.936 C 578.126 602.721, 577.367 605, 576.823 605 C 576.279 605, 576.028 605.563, 576.267 606.250 C 576.505 606.938, 576.097 609.234, 575.358 611.353 C 574.533 613.722, 574.352 615.807, 574.889 616.766 C 575.644 618.116, 575.838 618.068, 576.326 616.413 C 577.556 612.239, 580.196 595.863, 579.716 595.383 C 579.435 595.102, 578.892 597.151, 578.509 599.936 M 479.565 601.500 C 479.151 604.250, 478.456 606.950, 478.019 607.500 C 477.157 608.586, 476.001 615.883, 476.012 620.169 C 476.016 621.637, 475.342 623.515, 474.514 624.343 C 473.408 625.449, 473.256 626.466, 473.941 628.174 L 474.873 630.500 474.937 628.184 C 474.971 626.911, 475.411 625.100, 475.914 624.161 C 477.113 621.921, 481.234 599.195, 480.717 597.676 C 480.497 597.029, 479.979 598.750, 479.565 601.500 M 661.336 608 C 661.336 612.125, 661.513 613.813, 661.728 611.750 C 661.944 609.688, 661.944 606.313, 661.728 604.250 C 661.513 602.188, 661.336 603.875, 661.336 608 M 527.500 606.288 C 526.619 607.355, 526.339 614.751, 526.960 620.500 C 527.079 621.600, 527.864 619.592, 528.704 616.039 C 529.683 611.900, 529.869 609.456, 529.222 609.241 C 528.667 609.056, 528.442 608.026, 528.723 606.952 C 529.303 604.731, 528.945 604.537, 527.500 606.288 M 624.500 609.765 C 625.409 610.433, 625.657 615.600, 625.159 623.500 C 625.014 625.797, 624.749 626.151, 624.029 625.013 C 623.258 623.793, 623.087 623.883, 623.079 625.513 C 623.073 626.606, 622.886 628.625, 622.662 630 C 622.438 631.375, 622.198 633.089, 622.128 633.809 C 622.054 634.561, 621.468 634.812, 620.750 634.399 C 620.063 634.003, 619.837 634.051, 620.248 634.504 C 620.659 634.958, 619.017 637.280, 616.598 639.665 C 612.436 643.768, 612.659 645.323, 617.070 642.962 C 621.617 640.529, 628.202 620.927, 626.607 614.572 C 626.269 613.225, 626.444 611.843, 626.996 611.502 C 628.772 610.405, 628.067 609, 625.750 609.015 C 624.513 609.024, 623.950 609.361, 624.500 609.765 M 404.500 619.062 C 403.251 619.560, 405.661 619.886, 410.917 619.930 C 415.546 619.968, 419.146 619.836, 418.917 619.635 C 417.953 618.792, 406.336 618.330, 404.500 619.062 M 525.261 625.547 C 524.579 626.287, 524.290 627.592, 524.618 628.446 C 524.947 629.304, 524.692 630, 524.048 630 C 523.407 630, 523.140 630.418, 523.456 630.928 C 524.318 632.324, 518.229 640.809, 515.174 642.468 C 513.341 643.463, 513.030 643.933, 514.185 643.960 C 516.774 644.021, 521 642.176, 521 640.984 C 521 640.398, 521.884 638.700, 522.965 637.210 C 524.678 634.849, 527.568 625.204, 526.784 624.468 C 526.628 624.322, 525.942 624.807, 525.261 625.547 M 470.847 637 C 470.730 638.925, 470.701 641.608, 470.784 642.961 C 470.867 644.315, 470.580 645.665, 470.147 645.961 C 469.715 646.258, 469.654 647.625, 470.012 649 C 470.514 650.926, 470.950 649.848, 471.913 644.306 C 472.798 639.209, 472.856 636.585, 472.111 635.306 C 471.221 633.775, 471.028 634.032, 470.847 637 M 571 636.532 C 571 638.004, 570.267 639.365, 569.250 639.782 C 568.212 640.208, 567.418 641.721, 567.298 643.500 C 567.187 645.150, 566.962 648.637, 566.798 651.250 C 566.634 653.862, 566.132 656, 565.683 656 C 565.233 656, 565.158 656.922, 565.515 658.048 C 565.873 659.174, 565.724 660.637, 565.186 661.298 C 563.896 662.882, 562.695 674.707, 563.953 673.441 C 564.467 672.923, 565.832 666.650, 566.987 659.500 C 568.141 652.350, 569.479 645.779, 569.960 644.897 C 571.080 642.841, 572.422 634, 571.614 634 C 571.276 634, 571 635.140, 571 636.532 M 510.744 652.750 C 513.117 655.087, 515.776 657, 516.652 657 C 518.859 657, 516.612 654.316, 513.660 653.426 C 512.472 653.068, 510.359 651.813, 508.965 650.638 C 507.571 649.462, 508.371 650.413, 510.744 652.750 M 611.932 655.428 C 613.209 656.787, 614.857 657.608, 615.677 657.294 C 616.772 656.873, 616.431 656.264, 614.320 654.873 C 610.380 652.275, 609.223 652.544, 611.932 655.428 M 421.454 656.074 C 420.425 657.739, 421.918 658.782, 425.872 659.159 C 428.703 659.429, 429.625 659.186, 429.271 658.265 C 429.004 657.569, 428.719 657, 428.636 657 C 428.554 657, 427.033 656.583, 425.257 656.074 C 423.275 655.505, 421.806 655.505, 421.454 656.074 M 465.578 665.785 C 465.174 667.041, 464.705 669.558, 464.536 671.376 C 464.367 673.195, 463.904 676.161, 463.507 677.967 C 463.037 680.107, 463.140 681.031, 463.803 680.622 C 464.956 679.909, 467.406 666.701, 466.745 664.764 C 466.498 664.041, 465.999 664.478, 465.578 665.785 M 561.155 681.150 C 560.501 683.982, 560.086 686.416, 560.233 686.559 C 560.380 686.702, 562.491 686.961, 564.925 687.134 C 567.772 687.337, 569.496 687.013, 569.758 686.225 C 570.037 685.388, 568.837 685, 565.970 685 L 561.773 685 562.448 680.500 C 563.358 674.430, 562.620 674.801, 561.155 681.150 M 461.727 684.269 C 460.910 686.399, 461.532 686.741, 466.927 687.131 C 469.775 687.336, 471.495 687.014, 471.758 686.225 C 472.040 685.379, 470.773 685, 467.667 685 C 465.057 685, 462.999 684.496, 462.767 683.801 C 462.514 683.042, 462.132 683.214, 461.727 684.269" stroke="none" fill="#fa5656" fill-rule="evenodd"/><path d="M 284.500 440.040 C 272.453 440.350, 285.157 440.563, 314.296 440.540 L 365.092 440.500 364.498 443 C 364.172 444.375, 363.701 446.192, 363.453 447.037 C 363.159 448.035, 363.709 448.628, 365.022 448.727 C 366.369 448.828, 366.786 448.482, 366.272 447.689 C 365.847 447.035, 365.500 444.955, 365.500 443.066 L 365.500 439.632 335.500 439.566 C 319 439.530, 296.050 439.743, 284.500 440.040 M 257 455.899 C 257 456.394, 259.025 456.960, 261.500 457.157 C 263.975 457.353, 266 457.188, 266 456.790 C 266 456.392, 271.063 455.922, 277.250 455.747 C 287.169 455.465, 286.637 455.402, 272.750 455.214 C 263.934 455.094, 257 455.396, 257 455.899 M 337.750 455.744 C 342.288 455.929, 349.712 455.929, 354.250 455.744 C 358.788 455.559, 355.075 455.407, 346 455.407 C 336.925 455.407, 333.212 455.559, 337.750 455.744 M 421 480 C 416.737 482.334, 417.091 482.406, 423.409 480.489 C 429.514 478.637, 438.247 478.641, 443.462 480.499 C 448.468 482.282, 449.153 481.775, 444.635 479.631 C 439.593 477.238, 425.646 477.456, 421 480 M 485.140 479.108 C 479.690 480.740, 482.170 481.147, 490.085 479.919 C 497.242 478.808, 519.156 479.164, 525.500 480.493 C 528.242 481.068, 528.328 481.009, 526.500 479.811 C 524.006 478.176, 490.172 477.601, 485.140 479.108 M 703.500 479.479 L 699.500 480.804 704.500 480.152 C 707.250 479.793, 716.545 479.500, 725.156 479.500 C 733.767 479.500, 740.292 479.169, 739.656 478.765 C 737.597 477.457, 707.831 478.044, 703.500 479.479 M 376.750 480.743 C 380.738 480.932, 387.262 480.932, 391.250 480.743 C 395.238 480.553, 391.975 480.397, 384 480.397 C 376.025 480.397, 372.762 480.553, 376.750 480.743 M 576.287 480.740 C 579.469 480.939, 584.419 480.937, 587.287 480.736 C 590.154 480.535, 587.550 480.372, 581.500 480.374 C 575.450 480.376, 573.104 480.541, 576.287 480.740 M 648.776 480.733 C 651.128 480.945, 654.728 480.942, 656.776 480.727 C 658.824 480.512, 656.900 480.339, 652.500 480.343 C 648.100 480.346, 646.424 480.522, 648.776 480.733 M 400.220 484 C 400.239 486.816, 401.698 493.186, 401.882 491.250 C 401.950 490.525, 403.392 490, 405.313 490 C 407.780 490, 409.376 489.171, 411.563 486.754 C 413.923 484.145, 413.996 483.949, 411.936 485.754 C 410.311 487.176, 408.073 488, 405.830 488 C 402.716 488, 402.164 487.608, 401.247 484.750 C 400.340 481.924, 400.206 481.826, 400.220 484 M 467.750 483.999 C 466.237 484.455, 463.111 486.216, 460.803 487.914 C 457.306 490.485, 456.972 491, 458.803 491 C 460.011 491, 461 490.382, 461 489.627 C 461 488.872, 463.587 487.102, 466.750 485.693 C 472.507 483.128, 472.910 482.447, 467.750 483.999 M 606.146 488.500 C 606.193 490.700, 606.433 491.737, 606.679 490.805 C 606.924 489.873, 607.660 489.273, 608.313 489.472 C 608.966 489.670, 610.816 490.124, 612.425 490.479 C 614.995 491.048, 615.192 490.937, 614.052 489.563 C 613.339 488.703, 611.708 488, 610.427 488 C 609.147 488, 607.641 487.212, 607.080 486.250 C 606.272 484.862, 606.079 485.328, 606.146 488.500 M 659.626 487.448 C 657.846 490.165, 658.844 491.502, 661.924 490.524 C 664.624 489.667, 669 490.956, 669 492.608 C 669 494.821, 670.709 494.221, 671.346 491.786 C 672.088 488.948, 670.585 488.034, 665.143 488.015 C 661.685 488.003, 660.905 487.691, 661.362 486.500 C 662.222 484.257, 661.435 484.687, 659.626 487.448 M 680.557 488.047 C 676.369 490.136, 672 493.787, 672 495.198 C 672 495.664, 674.190 494.349, 676.866 492.273 C 679.543 490.198, 682.580 487.964, 683.616 487.309 C 686.507 485.481, 684.945 485.858, 680.557 488.047 M 544.159 491.449 C 544.798 492.852, 545.725 494, 546.220 494 C 546.714 494, 546.794 494.563, 546.399 495.250 C 546.003 495.938, 546.023 496.191, 546.442 495.814 C 546.862 495.436, 548.284 495.538, 549.603 496.039 C 550.921 496.540, 552 496.832, 552 496.687 C 552 496.542, 549.974 494.730, 547.498 492.660 C 543.416 489.248, 543.104 489.135, 544.159 491.449 M 718 493.167 C 718 493.808, 717.707 494.040, 717.349 493.682 C 716.991 493.324, 716.057 493.812, 715.275 494.766 C 714.492 495.719, 714.137 495.938, 714.485 495.250 C 715.797 492.659, 714.171 494.146, 711.541 497.941 C 710.038 500.109, 709.054 502.279, 709.353 502.763 C 709.653 503.247, 709.030 504.386, 707.970 505.294 C 706.770 506.321, 706.287 507.584, 706.691 508.636 C 707.129 509.779, 706.960 510.094, 706.170 509.605 C 705.526 509.207, 705 509.359, 705 509.941 C 705 510.523, 705.477 511, 706.059 511 C 706.641 511, 706.835 511.457, 706.490 512.016 C 706.144 512.575, 705.494 512.806, 705.045 512.528 C 704.596 512.250, 704.029 513.066, 703.786 514.340 C 703.409 516.313, 703.689 516.591, 705.671 516.212 C 707.484 515.866, 708 515.112, 708 512.812 C 708 511.187, 708.675 509.182, 709.500 508.357 C 710.325 507.532, 711 506.037, 711 505.036 C 711 504.034, 711.675 502.955, 712.500 502.638 C 713.325 502.322, 714 501.374, 714 500.531 C 714 499.689, 714.675 499, 715.500 499 C 716.325 499, 717 498.325, 717 497.500 C 717 496.675, 717.675 496, 718.500 496 C 719.325 496, 720 495.325, 720 494.500 C 720 493.675, 720.450 493, 721 493 C 721.550 493, 722 493.900, 722 495 C 722 496.111, 722.667 497, 723.500 497 C 725.482 497, 725.404 498.896, 723.328 501.190 C 721.744 502.941, 721.783 503.023, 724.078 502.769 C 726.726 502.475, 726.652 502.052, 725.637 511.651 C 725.143 516.328, 725.235 516.999, 726.096 515 C 726.689 513.625, 727.247 508.839, 727.337 504.365 C 727.472 497.624, 727.174 495.868, 725.595 494.115 C 723.568 491.864, 718 491.169, 718 493.167 M 508.776 503.250 C 509.375 508.437, 507.546 511.997, 504.275 512.015 C 499.022 512.044, 498.740 513.674, 503.957 513.858 C 506.737 513.957, 508.938 513.691, 508.847 513.269 C 508.757 512.846, 508.941 511.825, 509.256 511 C 509.572 510.175, 510.085 507.363, 510.396 504.750 C 510.811 501.262, 510.622 500, 509.682 500 C 508.827 500, 508.526 501.081, 508.776 503.250 M 662.818 509.733 C 662.643 511.255, 661.954 512.393, 661.286 512.262 C 660.618 512.131, 660.299 512.616, 660.577 513.340 C 660.855 514.063, 660.681 517.208, 660.192 520.328 C 659.703 523.447, 659.685 526, 660.151 526 C 660.618 526, 661 524.690, 661 523.089 C 661 521.488, 661.853 517.436, 662.897 514.084 C 663.940 510.733, 664.420 507.760, 663.965 507.478 C 663.509 507.197, 662.993 508.211, 662.818 509.733 M 626.204 511.250 C 623.388 515.920, 620.666 522, 621.167 522.501 C 621.403 522.737, 623.258 519.570, 625.290 515.465 C 629.137 507.691, 629.579 505.652, 626.204 511.250 M 774.250 514.348 C 773.563 516.922, 773.045 520.485, 773.100 522.264 C 773.173 524.614, 773.591 523.719, 774.623 519 C 776.320 511.248, 776.033 507.673, 774.250 514.348 M 467 515.921 C 467 516.427, 465.575 517.154, 463.833 517.537 C 459.643 518.457, 455.225 521.213, 453.255 524.135 L 451.661 526.500 454.080 524.317 C 456.591 522.053, 465.185 518, 467.476 518 C 468.196 518, 469.045 517.325, 469.362 516.500 C 469.712 515.586, 469.363 515, 468.469 515 C 467.661 515, 467 515.414, 467 515.921 M 501.709 537.137 C 501.142 541.360, 497.612 545.911, 493.874 547.239 C 493.075 547.522, 492.871 548.097, 493.387 548.613 C 493.903 549.129, 494.461 548.974, 494.722 548.244 C 494.969 547.553, 495.537 547.214, 495.985 547.491 C 497.127 548.196, 502.845 541.464, 503.576 538.554 C 503.908 537.229, 503.756 535.386, 503.237 534.459 C 502.498 533.138, 502.167 533.717, 501.709 537.137 M 769 538.366 C 769 540.437, 768.515 543.037, 767.923 544.144 C 767.331 545.251, 767.168 546.909, 767.561 547.828 C 768.041 548.950, 768.727 547.379, 769.647 543.059 C 770.568 538.728, 770.687 536.287, 770.009 535.609 C 769.330 534.930, 769 535.834, 769 538.366 M 722.390 537.765 C 721.779 538.169, 720.580 539.850, 719.725 541.500 C 718.870 543.150, 716.557 546.051, 714.585 547.946 C 712.613 549.842, 711.014 551.867, 711.032 552.446 C 711.049 553.026, 711.724 552.626, 712.532 551.559 C 713.339 550.491, 714 549.984, 714 550.431 C 714 552.180, 717.373 548.309, 720.175 543.345 C 721.795 540.473, 723.882 537.923, 724.811 537.678 C 726.075 537.344, 726.123 537.207, 725 537.131 C 724.175 537.076, 723 537.361, 722.390 537.765 M 443 544.333 C 443 546.900, 443.407 549, 443.905 549 C 444.720 549, 444.239 541.091, 443.362 540.083 C 443.163 539.854, 443 541.767, 443 544.333 M 676.524 563.025 C 679.316 565.940, 682.325 567.302, 680.131 564.658 C 679.519 563.920, 679.221 563.112, 679.471 562.863 C 679.720 562.614, 678.518 561.879, 676.799 561.230 L 673.675 560.051 676.524 563.025 M 764.015 565.250 C 764.003 566.697, 764.824 566.971, 768.750 566.832 C 773.455 566.665, 773.462 566.660, 769.513 566.257 C 767.320 566.034, 765.190 565.322, 764.778 564.676 C 764.284 563.898, 764.025 564.093, 764.015 565.250 M 350 566.558 C 353.787 567.382, 359 567.522, 359 566.799 C 359 566.360, 356.637 566.052, 353.750 566.116 C 350.863 566.180, 349.175 566.379, 350 566.558 M 703.728 567.722 C 705.503 567.943, 708.653 567.946, 710.728 567.730 C 712.802 567.513, 711.350 567.333, 707.500 567.328 C 703.650 567.324, 701.952 567.501, 703.728 567.722" stroke="none" fill="#3598ae" fill-rule="evenodd"/></svg>